<svg width="20" height="28" viewBox="0 0 20 28" fill="none" xmlns="http://www.w3.org/2000/svg">
<path d="M20 18.6094C20 24.4881 15.5436 28 10.0449 28C4.54627 28 0.718778 24.5262 0 20.0982H5.06739C5.62444 21.7778 7.43935 22.9993 10.0449 22.9993C12.938 22.9993 15.0225 21.4533 15.0225 18.7048C15.0225 15.9564 12.9919 14.544 10.027 14.544V18.4185C4.43845 18.4185 0.161725 15.0593 0.161725 9.44785C0.161725 3.8364 4.27673 0 10.0629 0C15.5436 0 19.3172 3.45467 19.6945 7.71098H14.8068C14.4115 6.18405 12.8122 5.01977 10.1707 5.01977C6.95418 5.01977 5.1752 6.60395 5.1752 9.29516C5.1752 11.9864 7.22372 13.2843 10.027 13.2843V9.21881C16.1006 9.21881 20 13.0743 20 18.6094Z" fill="black"/>
</svg>
